<?xml version="1.0" standalone="no"?>
<!DOCTYPE svg PUBLIC "-//W3C//DTD SVG 20010904//EN"
 "http://www.w3.org/TR/2001/REC-SVG-20010904/DTD/svg10.dtd">
<svg version="1.0" xmlns="http://www.w3.org/2000/svg"
 width="1024.000000pt" height="1024.000000pt" viewBox="0 0 1024.000000 1024.000000"
 preserveAspectRatio="xMidYMid meet">

<g transform="translate(0.000000,1024.000000) scale(0.100000,-0.100000)"
fill="#000000" stroke="none">
<path d="M4810 9340 c0 -6 7 -10 15 -10 8 0 15 2 15 4 0 2 -7 6 -15 10 -8 3
-15 1 -15 -4z"/>
<path d="M4721 9316 c-15 -16 -23 -37 -23 -59 0 -32 -6 -40 -61 -78 -34 -24
-64 -46 -67 -51 -3 -4 -22 -14 -42 -22 -20 -9 -39 -20 -42 -25 -3 -4 -17 -6
-31 -4 -29 6 -101 -20 -130 -47 -11 -10 -72 -37 -135 -61 -63 -23 -146 -57
-184 -75 -60 -29 -70 -32 -83 -19 -16 17 -75 20 -102 5 -10 -5 -24 -23 -31
-39 -16 -39 2 -98 35 -113 19 -8 25 -25 40 -102 28 -144 51 -226 96 -341 35
-91 40 -111 30 -131 -19 -42 -13 -70 22 -104 31 -30 35 -31 89 -25 l57 6 31
-53 c41 -71 311 -615 348 -703 16 -38 46 -105 66 -147 l35 -78 -27 0 c-15 0
-36 7 -46 15 -12 9 -42 15 -73 15 l-53 0 0 40 c0 47 -18 60 -80 60 -42 0 -79
-14 -92 -34 -4 -6 -8 -27 -8 -47 0 -44 -36 -74 -110 -91 -39 -9 -52 -17 -56
-34 -6 -23 -30 -34 -79 -34 -29 0 -31 2 -33 45 -1 24 -15 97 -31 162 -48 191
-53 227 -35 262 19 37 11 87 -16 101 -33 18 -78 12 -94 -12 -18 -25 -21 -93
-6 -103 6 -4 8 -22 5 -43 -10 -60 -67 -266 -76 -276 -5 -6 -36 50 -74 130 -87
187 -89 189 -109 187 -11 -1 -23 11 -31 30 -7 18 -36 79 -64 137 -43 88 -48
106 -35 113 29 16 -1 111 -50 156 -23 22 -26 32 -26 97 0 74 -12 123 -33 136
-23 15 -64 8 -85 -15 -18 -19 -22 -35 -22 -90 0 -55 -3 -69 -17 -74 -35 -12
-63 -47 -69 -85 -5 -27 -12 -38 -24 -38 -9 0 -29 -12 -44 -26 -30 -31 -36 -96
-11 -143 13 -26 12 -35 -20 -122 -18 -52 -38 -107 -45 -124 l-11 -29 -37 63
c-21 36 -42 66 -48 68 -6 2 -32 -36 -57 -84 -52 -101 -51 -102 -82 46 -14 65
-16 87 -7 102 31 50 -3 119 -58 119 -57 0 -86 -63 -59 -124 13 -27 3 -87 -47
-288 -23 -94 -24 -108 -24 -483 0 -272 -3 -393 -11 -408 -69 -131 -423 -619
-610 -842 -85 -101 -355 -376 -434 -442 -72 -60 -145 -113 -156 -113 -4 0 -32
48 -63 108 -31 59 -72 136 -91 172 -19 36 -36 69 -38 73 -1 4 -58 12 -127 18
-69 5 -199 16 -290 23 -91 8 -169 11 -173 7 -4 -4 -6 -291 -5 -637 4 -691 1
-653 68 -821 34 -85 82 -161 145 -231 l44 -49 783 -6 c431 -4 797 -9 813 -11
17 -3 109 -7 205 -11 254 -8 810 -43 915 -56 6 -1 -3 -5 -20 -9 l-30 -8 34 -1
c19 0 32 -4 29 -7 -3 -3 -450 -9 -992 -15 -1146 -10 -1550 -25 -1526 -54 30
-36 274 -132 425 -168 88 -20 114 -21 1080 -25 903 -3 1749 8 1792 25 11 5 12
8 2 14 -16 10 -2 13 171 34 74 9 176 22 225 29 52 7 117 9 155 4 102 -11 240
-40 240 -49 0 -5 10 -9 23 -9 18 0 19 2 7 11 -12 9 -11 9 5 3 11 -4 47 -10 80
-12 33 -2 63 -9 66 -14 16 -25 404 -32 1864 -33 1240 0 1512 2 1570 14 155 31
357 112 417 169 27 25 29 42 5 42 -7 0 -6 -4 3 -10 9 -6 10 -10 3 -10 -6 0
-15 5 -18 11 -4 5 -23 9 -43 8 -102 -7 -293 2 -286 12 4 8 -3 9 -22 5 -21 -4
-1684 7 -2459 16 -27 1 -38 3 -22 5 15 2 25 8 23 12 -3 4 0 8 7 9 558 43 1762
82 2544 82 l481 0 57 68 c66 79 133 210 171 337 l27 90 5 518 c2 284 1 517 -3
517 -3 0 -22 -12 -41 -27 -29 -24 -34 -34 -34 -68 0 -80 -45 -85 -186 -19
-186 85 -252 123 -471 267 -364 240 -641 467 -944 774 -178 179 -382 410 -440
497 l-39 58 0 480 c0 474 0 480 -24 576 -46 184 -60 270 -47 298 28 63 -1 127
-57 127 -46 0 -72 -28 -72 -78 0 -22 5 -46 11 -52 10 -10 -22 -175 -55 -283
l-13 -45 -61 125 c-33 69 -76 160 -95 202 -25 55 -41 77 -56 80 -16 2 -36 36
-85 138 -36 74 -71 141 -77 149 -10 11 -9 15 4 23 38 21 8 127 -53 193 -27 28
-29 36 -32 136 -2 88 -6 111 -22 128 -26 29 -71 27 -101 -4 -22 -21 -25 -33
-25 -102 0 -71 -2 -79 -22 -88 -32 -15 -59 -57 -65 -104 -4 -27 -16 -53 -34
-72 -24 -26 -29 -40 -29 -83 0 -29 6 -61 14 -71 12 -17 10 -31 -19 -115 -19
-52 -42 -115 -53 -140 l-19 -44 -57 107 c-32 60 -63 106 -70 104 -6 -1 -46
-72 -89 -155 -42 -84 -79 -147 -82 -140 -2 7 -18 70 -35 140 -24 97 -29 131
-21 147 6 11 11 38 11 60 0 31 -6 44 -26 60 -31 24 -43 26 -79 9 -38 -17 -53
-77 -31 -126 17 -37 16 -41 -13 -167 -17 -72 -38 -155 -46 -186 -12 -43 -15
-116 -15 -322 0 -243 -2 -267 -17 -275 -10 -6 -67 -17 -128 -26 -154 -22 -613
-94 -652 -102 -18 -4 -33 -3 -33 2 0 43 413 897 442 915 6 4 36 5 67 2 51 -5
58 -3 83 21 33 34 42 70 25 104 -12 24 -10 35 20 108 40 102 67 202 89 341 16
98 21 111 51 141 42 42 44 85 8 125 -29 30 -65 35 -107 13 -25 -13 -32 -11
-100 24 -70 37 -234 101 -290 114 -25 6 -28 4 -28 -18 0 -14 -4 -28 -10 -31
-6 -3 -10 5 -10 19 0 14 -11 37 -24 52 -19 22 -32 28 -67 28 -24 1 -51 7 -59
13 -8 7 -58 43 -110 81 -84 60 -95 71 -93 96 1 18 -2 26 -10 23 -25 -9 -57 12
-57 38 0 21 -5 25 -28 25 -17 0 -38 -10 -51 -24z m144 -166 c11 -9 59 -43 108
-74 48 -32 87 -61 87 -65 0 -11 -38 -43 -100 -83 -30 -20 -81 -56 -113 -81
l-58 -45 -107 79 c-165 120 -176 130 -160 145 7 7 57 41 111 77 91 60 102 64
155 64 40 1 63 -4 77 -17z m532 -239 c119 -47 213 -102 213 -122 0 -19 -173
-82 -184 -68 -2 2 -22 31 -46 64 -24 33 -63 82 -86 109 -24 27 -41 53 -38 57
5 9 60 -7 141 -40z m-1088 20 c-8 -10 -41 -52 -74 -93 -34 -42 -68 -86 -77
-99 l-15 -24 -57 18 c-99 32 -126 46 -119 63 7 19 144 88 248 125 98 35 113
37 94 10z m787 -8 c-3 -10 -19 -76 -35 -148 -17 -71 -34 -140 -37 -152 -6 -23
-29 -31 -36 -14 -1 6 -33 41 -70 79 -38 38 -68 74 -67 78 0 12 45 47 148 116
93 62 105 67 97 41z m-637 -159 c23 -92 40 -168 38 -170 -2 -2 -34 9 -73 25
-38 15 -99 38 -136 51 -38 13 -68 28 -68 34 0 25 169 226 190 226 4 0 26 -75
49 -166z m124 111 c45 -30 98 -67 117 -84 l35 -29 -55 -58 c-30 -33 -67 -69
-82 -82 l-28 -23 -10 26 c-10 27 -70 279 -70 296 0 15 8 11 93 -46z m671 -36
c71 -81 111 -138 103 -146 -3 -2 -54 -21 -115 -43 -61 -21 -120 -43 -131 -50
-12 -6 -21 -7 -21 -2 0 4 16 75 35 157 19 83 35 153 35 158 0 23 33 -3 94 -74z
m-1388 -46 c-10 -10 -19 5 -10 18 6 11 8 11 12 0 2 -7 1 -15 -2 -18z m1869 8
c-3 -6 -14 -11 -23 -11 -15 1 -15 2 2 15 21 16 32 13 21 -4z m939 -130 c-4
-40 -10 -58 -15 -49 -10 16 -12 112 -2 122 16 16 24 -16 17 -73z m-2666 -25
l76 -74 -18 -74 c-10 -40 -20 -110 -23 -156 -4 -52 -9 -80 -15 -74 -16 16
-118 399 -118 443 0 22 28 4 98 -65z m895 -35 c26 -27 47 -56 47 -64 0 -20
-112 -77 -152 -77 -35 0 -159 58 -166 78 -2 6 31 47 74 91 l76 81 37 -29 c20
-16 58 -52 84 -80z m752 57 c-20 -149 -87 -408 -105 -408 -4 0 -10 39 -13 88
-4 48 -14 112 -22 142 -8 30 -15 65 -15 76 0 22 130 154 151 154 7 0 9 -17 4
-52z m-155 4 c0 -5 -9 -17 -20 -27 -18 -17 -20 -17 -26 0 -4 10 -1 21 7 26 18
11 39 12 39 1z m-1372 -19 c5 -18 -23 -16 -39 3 -11 14 -10 15 11 12 13 -1 25
-9 28 -15z m1276 -46 c9 -24 5 -32 -35 -75 -89 -94 -149 -171 -149 -191 0 -12
-17 -44 -37 -71 -41 -53 -60 -59 -123 -36 -33 12 -34 15 -32 57 6 87 15 93 82
59 46 -23 50 -24 50 -8 0 6 7 19 16 29 14 16 14 18 -3 27 -10 6 -39 13 -65 17
-28 4 -48 13 -48 20 0 7 11 33 25 58 25 44 29 46 158 95 72 28 137 50 142 48
6 -1 14 -15 19 -29z m-1071 -17 c58 -22 109 -40 114 -41 11 0 73 -98 73 -115
0 -10 -15 -14 -53 -14 l-54 0 1 -45 c1 -25 5 -45 9 -45 4 0 25 9 47 20 56 28
67 26 75 -17 3 -21 9 -48 12 -60 4 -18 -2 -25 -32 -37 -62 -26 -80 -21 -117
32 -19 26 -46 67 -61 92 -14 25 -48 71 -74 104 -90 110 -104 132 -97 149 9 25
40 21 157 -23z m2328 -23 c0 -4 -3 -27 -7 -52 -5 -37 -10 -45 -28 -45 -51 1
-57 31 -14 85 18 24 49 31 49 12z m-2456 -118 c28 -32 51 -63 53 -67 1 -5 -20
-19 -48 -32 -27 -13 -57 -32 -67 -42 -32 -36 -45 -23 -38 40 11 98 26 162 38
161 7 0 35 -27 62 -60z m1260 -25 c8 -38 15 -84 15 -101 0 -32 -12 -43 -25
-23 -3 5 -35 26 -71 46 -73 41 -73 34 5 116 25 27 49 44 53 40 5 -5 15 -39 23
-78z m-814 46 c10 -6 19 -18 19 -27 0 -9 3 -14 6 -10 8 8 28 -12 37 -37 7 -17
6 -17 -9 -5 -16 13 -16 12 -5 -8 6 -12 17 -21 24 -19 6 1 9 1 5 -1 -5 -3 -8
-11 -8 -19 0 -21 99 -18 128 4 19 15 21 21 12 52 -16 57 -14 62 24 54 24 -4
42 -1 58 10 34 24 41 20 33 -21 -4 -21 -12 -72 -19 -113 l-11 -74 -39 -8 c-22
-5 -55 -20 -73 -34 l-34 -26 -84 42 -85 42 -2 52 c-1 28 -2 59 -1 69 0 9 -6
17 -14 17 -8 0 -13 13 -13 35 0 37 14 44 51 25z m1912 -92 c13 -19 1 -67 -18
-75 -38 -14 -59 45 -28 79 18 21 32 20 46 -4z m-1201 -89 c39 -21 108 -92 108
-111 0 -11 -4 -28 -10 -38 -8 -15 -16 -17 -45 -10 -31 7 -193 60 -204 67 -4 3
42 75 67 105 14 17 33 14 84 -13z m-1025 -33 c37 -53 40 -66 18 -66 -8 0 -58
-16 -112 -36 l-97 -37 -18 23 c-10 12 -18 28 -18 36 0 40 129 138 174 132 11
-2 34 -25 53 -52z m395 -113 c8 -10 3 -23 -17 -53 -15 -22 -33 -40 -40 -40 -7
0 -15 19 -18 43 -4 23 -9 57 -13 76 l-7 34 42 -24 c23 -13 47 -29 53 -36z
m203 12 c-3 -19 -8 -51 -11 -71 -6 -42 -18 -40 -58 10 l-31 38 33 29 c18 16
41 29 53 29 17 0 19 -5 14 -35z m-358 -23 c12 -59 8 -72 -22 -72 -18 0 -31 13
-54 54 -17 29 -31 55 -31 57 0 2 22 5 49 6 l48 3 10 -48z m1974 -67 c6 -61 13
-150 14 -198 3 -98 3 -98 -79 -114 l-29 -6 6 74 c5 67 66 363 73 356 2 -2 8
-52 15 -112z m-1447 97 c3 -5 -6 -25 -19 -45 -14 -20 -25 -43 -25 -51 0 -20
-19 -20 -47 -1 -16 11 -22 12 -26 2 -3 -9 -8 -9 -17 -1 -9 9 -7 16 7 30 10 11
24 31 31 47 10 23 18 27 51 27 22 0 42 -4 45 -8z m-669 -52 c15 -22 25 -43 22
-47 -12 -11 -197 19 -197 32 0 12 97 52 131 54 9 1 29 -17 44 -39z m835 13
c66 -18 74 -23 63 -34 -10 -10 -191 -34 -199 -26 -3 3 4 24 17 47 19 33 27 40
44 35 11 -4 45 -13 75 -22z m-436 -92 c20 -27 36 -54 36 -61 0 -16 -71 -150
-79 -150 -3 0 -23 30 -43 65 -32 56 -36 70 -27 93 13 34 59 102 70 102 4 0 23
-22 43 -49z m-209 19 c3 -5 1 -10 -4 -10 -6 0 -11 5 -11 10 0 6 2 10 4 10 3 0
8 -4 11 -10z m-309 -48 c6 -4 44 -59 84 -122 40 -63 93 -145 117 -182 l45 -67
-13 -78 c-14 -93 -24 -118 -35 -88 -4 11 -64 135 -133 275 -69 140 -127 258
-129 263 -5 9 50 9 64 -1z m920 -194 c-56 -112 -120 -243 -142 -292 l-42 -89
-11 84 c-17 121 -17 120 16 169 36 54 154 252 177 298 15 29 21 32 59 32 l43
0 -100 -202z m1002 185 c-1 -10 17 -58 40 -108 59 -130 84 -317 45 -329 -22
-6 -164 -33 -218 -41 l-40 -6 6 98 c6 96 8 101 78 244 79 162 91 182 89 142z
m-2961 -55 c-3 -35 -10 -76 -16 -93 -5 -16 -12 -42 -15 -57 -5 -21 -12 -28
-31 -28 -13 0 -26 4 -29 8 -9 15 34 94 54 99 17 5 20 14 20 69 0 41 4 64 11
64 8 0 10 -19 6 -62z m1203 47 c0 -9 7 -27 16 -40 13 -20 25 -25 58 -25 68 0
70 -4 43 -110 l-23 -94 -49 79 c-56 93 -115 195 -115 201 0 2 16 4 35 4 25 0
35 -4 35 -15z m690 10 c0 -11 -29 -61 -84 -145 -31 -47 -59 -95 -62 -107 -4
-13 -9 -23 -13 -23 -6 0 -41 150 -41 177 0 7 21 19 48 26 33 10 53 23 67 45
16 24 27 31 53 32 17 0 32 -2 32 -5z m780 -255 l1 -234 -26 -13 c-44 -24 -48
-12 -41 131 6 114 50 366 62 354 2 -2 4 -109 4 -238z m-1026 25 c17 -104 17
-105 -5 -171 -26 -77 -28 -76 -70 58 l-27 89 34 56 c19 31 34 60 34 65 0 4 4
8 9 8 4 0 16 -47 25 -105z m-199 34 c19 -33 35 -65 35 -70 0 -18 -62 -189 -69
-189 -3 0 -17 25 -29 55 l-24 54 18 105 c10 58 21 106 26 106 4 0 23 -27 43
-61z m1242 -31 c-3 -8 -6 -5 -6 6 -1 11 2 17 5 13 3 -3 4 -12 1 -19z m569 -73
c6 -14 8 -13 20 2 12 16 13 12 14 -31 0 -40 -3 -47 -16 -42 -9 4 -22 0 -28 -8
-6 -8 -23 -18 -38 -22 l-28 -6 0 61 0 61 35 0 c23 0 38 -6 41 -15z m-3396 -15
c15 -28 -4 -62 -33 -58 -22 3 -34 35 -23 64 8 21 44 17 56 -6z m1684 -152 c24
-83 21 -113 -21 -238 -3 -8 -20 25 -39 73 l-34 88 32 75 c18 40 35 71 39 66 4
-4 14 -32 23 -64z m-167 -141 c-8 -19 -18 -53 -22 -76 -8 -49 -18 -52 -35 -11
-9 21 -10 56 -6 117 11 134 14 139 48 66 27 -58 28 -63 15 -96z m329 52 c12
-81 12 -98 -2 -145 -8 -30 -17 -54 -19 -54 -2 0 -13 42 -25 94 l-21 94 20 41
c12 22 21 48 21 57 0 43 14 -3 26 -87z m1582 85 l23 -7 -3 -260 -3 -261 -44
-13 c-24 -7 -52 -15 -62 -18 -18 -6 -19 5 -19 273 0 215 3 282 13 285 17 8 68
8 95 1z m-3458 -186 c-1 -84 1 -162 5 -173 6 -16 5 -17 -4 -5 -9 12 -11 9 -11
-16 0 -32 -14 -44 -47 -44 -14 0 -15 13 -10 98 3 53 13 124 22 157 9 33 20 77
26 98 5 20 12 37 15 37 3 0 4 -69 4 -152z m3280 134 c0 -26 -28 -48 -75 -61
-46 -11 -243 -51 -256 -51 -5 0 -9 18 -9 39 l0 39 68 11 c37 7 101 18 142 25
109 20 130 20 130 -2z m-421 -119 c-1 -53 -3 -70 -9 -53 -4 14 -7 -68 -6 -182
0 -114 4 -199 8 -190 6 14 7 14 7 -3 1 -22 -44 -55 -73 -55 -15 0 -16 26 -16
259 1 270 3 284 45 294 45 10 45 10 44 -70z m427 -210 l-2 -188 -40 -7 c-52
-10 -290 -48 -298 -48 -3 0 -6 83 -6 185 l0 185 25 0 25 0 0 -150 c0 -149 0
-150 23 -150 12 0 32 3 45 6 22 6 22 9 22 155 0 146 1 150 23 158 12 5 25 7
30 4 4 -2 7 -69 7 -149 l0 -145 43 3 42 3 3 151 c2 145 3 152 25 162 12 6 25
11 29 11 4 1 6 -83 4 -186z m-1658 90 c25 -96 22 -147 -9 -163 -40 -22 -65 85
-41 182 9 37 18 68 22 68 3 0 16 -39 28 -87z m169 -80 c-5 -51 -21 -73 -53
-73 -21 0 -24 5 -24 39 0 32 24 130 47 191 9 24 34 -111 30 -157z m-2233 -121
c-5 -95 -9 -114 -25 -122 -10 -6 -20 -10 -23 -10 -3 0 -6 51 -6 113 0 81 6
138 22 207 l23 95 7 -85 c4 -47 5 -136 2 -198z m272 -3 l6 -66 -88 -17 c-48
-9 -89 -14 -92 -12 -2 3 1 47 6 98 8 76 18 110 52 182 l42 89 34 -103 c18 -57
36 -134 40 -171z m2864 104 c-1 -25 -36 -35 -233 -68 -255 -42 -267 -46 -267
-79 0 -14 3 -27 8 -29 4 -3 104 10 222 29 251 40 270 41 270 17 0 -10 -4 -24
-9 -32 -12 -18 -88 -40 -166 -47 -33 -3 -73 -12 -89 -20 -16 -8 -56 -14 -90
-15 -83 -1 -279 -24 -466 -54 -170 -28 -398 -54 -405 -47 -4 4 22 62 28 62 11
0 481 71 483 73 1 1 5 14 9 29 5 20 3 29 -7 33 -16 6 -397 -50 -441 -65 -22
-7 -29 -6 -34 6 -3 8 -1 20 5 26 9 9 477 87 527 88 18 0 20 -6 20 -57 0 -56 1
-58 24 -55 34 3 34 4 39 71 l4 58 207 33 c113 18 224 36 246 40 54 10 115 12
115 3z m-1440 -72 c0 -57 19 -71 97 -71 l66 0 -6 -59 c-11 -125 -80 -186 -208
-186 -52 0 -72 4 -88 19 -24 22 -51 103 -51 152 0 29 3 32 38 39 74 14 102 31
102 64 0 42 17 81 35 81 11 0 15 -11 15 -39z m-1282 -30 c3 -33 -9 -51 -35
-51 -9 0 -13 16 -13 46 0 41 2 45 23 42 17 -2 23 -11 25 -37z m4292 -161 c0
-107 -4 -170 -10 -170 -6 0 -10 53 -10 139 0 125 6 201 16 201 2 0 4 -76 4
-170z m-4283 44 c13 -13 14 -24 4 -71 -6 -31 -11 -127 -11 -214 0 -161 -2
-169 -41 -169 -5 0 -9 99 -9 235 0 231 0 235 21 235 11 0 27 -7 36 -16z m-127
-24 c0 -11 -8 -28 -19 -39 -18 -18 -123 -57 -171 -63 -23 -3 -25 0 -25 37 l0
40 100 21 c55 12 103 22 108 23 4 0 7 -8 7 -19z m3552 -227 c1 -131 2 -254 2
-273 0 -29 -5 -37 -28 -48 -15 -8 -29 -12 -31 -10 -5 5 -8 196 -6 391 l1 177
30 0 30 0 2 -237z m-122 147 c0 -64 -2 -71 -22 -80 -20 -8 -293 -50 -325 -50
-9 0 -13 22 -13 78 l0 79 148 20 c81 11 162 21 180 22 l32 1 0 -70z m-2300 46
c0 -15 -20 -21 -105 -31 -73 -10 -198 -44 -207 -58 -4 -7 -8 -18 -8 -26 0 -15
16 -14 218 18 l114 17 15 -23 c9 -13 13 -26 11 -29 -9 -8 -138 -31 -363 -64
-115 -17 -266 -39 -335 -50 -69 -10 -150 -20 -180 -22 l-55 -3 -3 42 c-2 22 1
56 6 75 l8 33 100 16 c153 26 603 100 659 109 84 13 125 12 125 -4z m-1425
-213 c-3 -119 -8 -220 -11 -225 -3 -4 -14 -8 -25 -8 -18 0 -19 9 -19 219 l0
220 28 4 c15 2 28 5 30 6 1 0 0 -97 -3 -216z m3292 110 c-4 -38 -10 -161 -13
-275 -4 -115 -10 -208 -13 -208 -3 0 -16 -3 -28 -6 l-23 -6 0 275 c0 302 -4
283 59 286 23 1 24 0 18 -66z m819 -70 c148 -186 139 -172 123 -189 -12 -11
-24 0 -79 78 -144 202 -173 248 -156 248 2 0 53 -62 112 -137z m-982 113 c-3
-9 -47 -19 -132 -30 -70 -9 -172 -23 -227 -31 -55 -7 -143 -19 -195 -25 -99
-11 -138 -16 -380 -49 -80 -11 -201 -27 -270 -36 -69 -9 -188 -25 -265 -36
-301 -42 -876 -111 -882 -105 -12 11 446 79 1162 171 553 71 927 121 1050 139
124 19 145 19 139 2z m-2826 -342 c-2 -1 -41 -7 -88 -13 -47 -7 -97 -14 -112
-17 l-28 -6 0 145 0 145 31 6 c77 15 74 19 74 -111 0 -98 3 -118 15 -118 13 0
15 20 15 120 l0 120 45 11 45 10 3 -144 c1 -80 1 -146 0 -148z m3700 146 c0
-25 -4 -56 -8 -70 -5 -17 -8 5 -8 65 0 59 2 83 8 70 5 -11 8 -40 8 -65z m702
-191 c0 -137 -3 -208 -10 -204 -6 4 -10 85 -10 211 0 129 4 204 10 204 6 0 10
-77 10 -211z m-103 44 c-2 -32 -3 -8 -3 52 0 61 1 87 3 58 2 -29 2 -78 0 -110z
m-901 71 c3 -19 4 -68 1 -107 -4 -40 -7 -75 -7 -78 0 -4 -9 -9 -19 -12 -17 -4
-21 2 -27 50 -8 67 2 164 19 175 21 13 26 9 33 -28z m-137 -98 l1 -114 -25 -4
-25 -5 0 112 c0 61 3 115 7 118 3 4 14 7 24 7 15 0 17 -13 18 -114z m-429
-701 l0 -805 -22 4 c-93 20 -415 57 -433 49 -11 -4 -15 -38 -17 -156 l-3 -152
-260 -3 c-232 -2 -712 -16 -992 -29 l-103 -4 0 840 0 841 23 4 c39 9 262 36
290 36 l27 0 0 -231 c0 -216 -1 -233 -20 -256 -41 -52 -15 -131 45 -137 26 -2
35 -12 65 -67 57 -107 290 -601 290 -616 0 -7 -7 -25 -16 -39 -23 -34 -21 -99
3 -132 11 -15 36 -35 57 -46 32 -16 44 -17 76 -7 80 24 118 109 81 181 l-21
40 159 338 c153 324 160 337 190 343 49 10 71 36 71 82 0 24 -7 48 -17 60 -16
17 -18 50 -21 312 l-3 292 38 6 c53 8 437 52 491 55 l22 2 0 -805z m290 680
l0 -115 -26 0 -27 0 5 103 c5 108 10 127 34 127 11 0 14 -22 14 -115z m999
-122 c-1 -15 -4 -41 -8 -58 l-7 -30 -15 30 c-9 17 -37 70 -62 118 -26 48 -47
99 -47 113 0 21 11 12 70 -60 52 -63 70 -92 69 -113z m-1899 -113 l0 -290 -25
-16 c-14 -9 -25 -22 -25 -30 0 -7 -18 -23 -41 -34 -22 -12 -71 -40 -107 -62
-133 -82 -170 -98 -176 -82 -3 9 -6 85 -6 169 l0 153 34 22 c127 78 84 260
-62 260 -83 0 -142 -56 -142 -135 0 -51 28 -97 79 -129 l39 -25 2 -166 1 -167
-73 39 c-127 68 -253 144 -257 156 -2 6 -14 20 -26 31 -22 20 -23 30 -28 251
-4 127 -3 236 2 243 6 10 123 26 387 56 208 24 389 44 402 45 l22 1 0 -290z
m-2110 5 l0 -225 -24 0 c-13 0 -27 7 -30 16 -8 21 -8 328 0 388 6 40 10 46 30
46 l24 0 0 -225z m-110 160 c0 -30 -1 -55 -3 -55 -1 0 -49 -9 -107 -20 -58
-11 -108 -20 -112 -20 -7 0 -12 119 -5 121 16 5 170 27 195 28 l32 1 0 -55z
m4572 -15 c58 -73 62 -80 44 -80 -27 0 -66 44 -87 100 -23 60 -21 60 43 -20z
m-4877 -35 c1 -39 3 -137 5 -220 l5 -150 -33 -3 -32 -3 0 220 c0 226 1 233 40
228 12 -2 15 -18 15 -72z m567 -96 l-9 -84 -2 95 c-1 66 2 91 10 83 7 -7 7
-36 1 -94z m3291 79 c3 -12 -7 -76 -15 -83 -1 -2 -16 -5 -33 -7 -30 -3 -30 -3
-26 42 1 25 5 48 8 53 7 12 61 8 66 -5z m32 2 c3 -5 1 -10 -4 -10 -6 0 -11 5
-11 10 0 6 2 10 4 10 3 0 8 -4 11 -10z m-2655 -221 c0 -172 -3 -220 -12 -217
-25 9 -21 438 3 438 5 0 9 -95 9 -221z m3605 105 c29 -60 68 -133 85 -162 37
-63 19 -59 -46 10 -103 110 -104 111 -104 195 0 42 2 74 5 71 3 -3 30 -54 60
-114z m-1125 62 l0 -44 -82 -7 c-46 -4 -121 -13 -167 -21 -46 -8 -85 -14 -87
-14 -2 0 -4 20 -4 45 0 51 -17 44 180 68 174 22 160 24 160 -27z m881 -119
c-14 -4 -42 -5 -62 -1 -34 5 -38 9 -48 49 -6 24 -11 61 -11 81 l0 37 74 -79
c73 -79 73 -79 47 -87z m-1301 93 c0 -11 -4 -20 -10 -20 -5 0 -10 -9 -10 -20
0 -13 -10 -24 -26 -31 -32 -12 -33 -11 -35 27 -4 61 -2 64 41 64 33 0 40 -3
40 -20z m1650 -39 c0 -12 -5 -10 -20 9 -27 34 -26 63 0 31 11 -13 20 -31 20
-40z m-2805 15 c31 -4 34 -69 4 -90 -34 -24 -77 -3 -85 41 -5 29 -3 39 12 50
10 7 27 10 38 7 12 -4 26 -7 31 -8z m2048 -19 c-5 -32 -3 -34 38 -46 24 -7 49
-17 54 -21 6 -4 25 -11 43 -15 18 -4 32 -9 29 -11 -2 -2 -43 3 -90 13 l-87 17
0 48 c0 26 4 48 9 48 6 0 7 -15 4 -33z m-3066 -104 c-2 -21 -4 -6 -4 32 0 39
2 55 4 38 2 -18 2 -50 0 -70z m3982 24 c59 -60 57 -64 -24 -67 -67 -3 -65 -6
-65 70 0 84 4 84 89 -3z m-4799 -33 c0 -86 -2 -95 -17 -92 -15 3 -18 15 -18
78 0 78 7 110 25 110 6 0 10 -37 10 -96z m-92 -12 c3 -87 2 -92 -18 -92 -19 0
-20 6 -20 96 0 86 2 95 18 92 14 -3 17 -17 20 -96z m-98 -12 c0 -83 -1 -90
-20 -90 -17 0 -20 7 -20 53 0 77 11 127 26 127 11 0 14 -20 14 -90z m3767 66
c-9 -13 -18 -50 -20 -82 -3 -44 -3 -39 -3 19 1 42 -2 77 -6 77 -5 0 -8 -101
-8 -225 l0 -225 -26 -11 c-15 -5 -29 -8 -31 -5 -7 6 -8 104 -5 304 l2 172 56
0 56 0 -15 -24z m-164 -208 c-3 -123 -6 -229 -8 -235 -3 -7 -16 -13 -30 -13
l-25 0 0 105 c0 105 -12 155 -36 155 -28 0 -42 -45 -48 -154 -3 -60 -7 -110
-8 -111 -2 -2 -14 -5 -28 -7 l-25 -3 -3 116 c-2 103 -5 119 -23 135 -21 18
-21 18 -40 -5 -16 -20 -19 -40 -19 -136 0 -114 -4 -125 -41 -125 -5 0 -9 99
-9 234 l0 234 88 7 c48 4 114 11 147 15 33 4 72 8 86 9 l26 1 -4 -222z m-3946
144 c-15 -48 -40 -82 -62 -82 -8 0 -15 2 -15 4 0 8 82 127 86 124 2 -2 -2 -23
-9 -46z m3518 -44 c-8 -72 -10 -127 -14 -350 -1 -35 -3 -38 -30 -38 -17 0 -31
6 -35 16 -3 9 -3 114 1 235 l6 219 40 0 40 0 -8 -82z m1333 36 c-5 -25 -35
-41 -49 -27 -18 18 -3 43 26 43 19 0 26 -5 23 -16z m-4753 -1282 c-2 -3 -19
-1 -37 4 l-33 10 0 539 0 540 35 76 35 76 3 -620 c1 -341 0 -622 -3 -625z
m4980 1159 l57 -63 -38 -39 c-21 -21 -45 -39 -54 -39 -22 0 -40 62 -47 159 -6
86 -14 88 82 -18z m-2723 -13 c-4 -120 -11 -138 -10 -27 0 48 -3 92 -7 99 -5
9 -4 11 3 6 7 -4 12 -2 12 3 0 6 1 11 3 11 2 0 1 -42 -1 -92z m1745 -10 c-2
-13 -4 -3 -4 22 0 25 2 35 4 23 2 -13 2 -33 0 -45z m1327 54 c11 -17 46 -163
46 -189 l0 -28 -33 35 c-64 69 -138 170 -132 180 7 12 112 14 119 2z m-4786
-45 c6 -52 -42 -81 -50 -29 -6 45 1 63 25 60 16 -2 23 -11 25 -31z m4287 3 c8
-16 15 -33 15 -37 -1 -14 -40 39 -40 53 0 22 8 17 25 -16z m-4395 -23 l0 -33
-102 -12 c-136 -16 -128 -17 -128 22 0 34 0 35 53 40 28 3 66 8 82 9 90 11 95
10 95 -26z m5069 -50 c35 -32 59 -62 55 -68 -7 -12 -82 -48 -100 -49 -6 0 -16
33 -23 73 -7 39 -15 83 -18 96 -8 31 6 23 86 -52z m-5364 22 c0 -31 -3 -34
-32 -37 -29 -3 -33 0 -33 20 0 27 10 43 30 51 26 10 35 1 35 -34z m-379 -33
c-13 -45 -21 -57 -42 -62 -32 -8 -38 -1 -23 28 18 34 71 100 76 94 3 -2 -2
-30 -11 -60z m954 28 c0 -21 -4 -33 -10 -29 -12 7 -10 65 2 65 4 0 8 -16 8
-36z m4418 -76 c22 -24 42 -105 42 -170 0 -24 -4 -28 -30 -28 -19 0 -33 7 -40
20 -11 21 -50 193 -50 223 0 17 1 17 28 -1 15 -11 37 -31 50 -44z m-3766 -13
c-2 -25 -8 -45 -13 -45 -10 0 -10 0 -13 53 -2 28 1 37 13 37 13 0 15 -9 13
-45z m-387 15 c77 -12 107 -26 35 -17 -25 4 -71 9 -102 13 -32 3 -58 11 -58
16 0 5 12 7 28 4 15 -3 58 -10 97 -16z m-435 -174 c0 -178 -1 -185 -21 -191
-11 -4 -24 -4 -27 0 -9 8 -16 341 -8 361 3 8 17 14 31 14 l25 0 0 -184z m1494
104 c119 -71 126 -77 126 -107 0 -19 10 -43 24 -60 23 -27 24 -34 27 -231 2
-111 2 -202 -1 -202 -3 0 -32 62 -65 138 -33 75 -104 226 -157 335 -54 109
-98 201 -98 204 0 8 10 2 144 -77z m-1606 -112 c-3 -154 -5 -183 -18 -186 -13
-2 -15 12 -15 87 0 97 -11 125 -40 101 -11 -9 -15 -33 -15 -101 0 -82 -2 -89
-20 -89 -18 0 -20 7 -20 79 0 81 -12 111 -46 111 -11 0 -14 -20 -14 -100 0
-93 -1 -100 -20 -100 -19 0 -20 7 -20 179 l0 180 53 5 c28 3 66 8 82 9 17 2
45 5 63 6 l32 1 -2 -182z m2153 165 c-7 -14 -124 -266 -287 -618 l-19 -40 -3
204 -2 205 30 27 c20 19 30 37 30 58 0 26 11 36 118 105 119 77 151 91 133 59z
m2431 -46 c-3 -40 -6 -46 -19 -36 -32 27 -36 50 -12 75 29 31 37 21 31 -39z
m-5122 -437 c0 -409 -2 -490 -14 -490 -7 0 -28 3 -45 6 l-32 7 3 426 3 426 35
57 c19 32 38 58 43 58 4 0 7 -220 7 -490z m244 293 c1 -164 0 -172 -19 -177
-46 -13 -45 -15 -45 167 0 96 3 177 7 181 4 4 18 6 32 4 l25 -3 0 -172z m-432
111 c-13 -37 -18 -42 -20 -24 -5 33 7 70 23 70 12 0 11 -7 -3 -46z m-67 -33
c-7 -54 -16 -66 -58 -76 -21 -6 -27 -4 -27 9 0 19 79 130 87 122 3 -2 2 -27
-2 -55z m5773 -127 c3 -12 -52 -62 -94 -85 -21 -11 -27 -10 -39 2 -13 13 -39
115 -60 233 l-6 39 98 -89 c54 -48 99 -93 101 -100z m-578 65 c0 -58 -4 -88
-10 -84 -5 3 -10 47 -10 96 0 58 4 88 10 84 6 -3 10 -47 10 -96z m810 64 c26
-56 68 -193 60 -193 -14 0 -211 152 -217 167 -8 19 0 24 59 39 76 18 83 17 98
-13z m-4276 -54 c3 -34 6 -113 6 -176 0 -104 -2 -114 -17 -111 -16 3 -18 20
-20 176 -1 135 1 172 11 172 9 0 15 -21 20 -61z m4468 -50 l67 -57 -32 -15
c-18 -9 -45 -17 -62 -19 -28 -3 -31 0 -47 51 -10 30 -21 71 -24 90 -8 42 -14
45 98 -50z m-1853 15 c-2 -37 -7 -48 -25 -56 -35 -16 -54 -3 -54 36 0 54 8 66
47 66 l34 0 -2 -46z m1031 -446 l0 -379 -52 3 -53 3 -2 435 -2 435 54 -59 55
-59 0 -379z m-1160 463 c0 -10 -3 -33 -6 -50 -6 -29 -9 -31 -51 -31 -43 0
-213 -16 -265 -25 -27 -4 -28 -3 -28 45 0 50 0 50 33 51 17 0 88 6 157 14 69
7 133 13 143 14 10 1 17 -6 17 -18z m-4080 -381 l0 -390 -45 0 -45 0 0 320 0
321 42 69 c22 39 43 70 45 70 1 0 3 -175 3 -390z m3650 326 c0 -40 -22 -66
-56 -66 -22 0 -24 4 -24 50 l0 50 40 0 c39 0 40 -1 40 -34z m914 -56 c12 -4
61 -15 109 -24 48 -9 97 -21 110 -27 19 -8 18 -9 -8 -4 -16 3 -77 13 -135 21
-58 9 -109 20 -113 24 -4 4 -4 27 0 51 l8 44 3 -38 c2 -29 9 -40 26 -47z
m-4826 22 c-5 -50 -42 -139 -76 -181 l-20 -25 4 65 c3 35 7 73 9 84 4 20 71
105 82 105 3 0 3 -22 1 -48z m82 35 c0 -19 -30 -58 -40 -52 -5 3 -7 12 -5 20
3 8 7 22 10 30 5 18 35 20 35 2z m5612 -26 c4 -25 2 -28 -11 -21 -9 4 -25 18
-35 29 -19 21 -19 21 11 21 26 0 31 -4 35 -29z m292 -81 c15 -33 30 -76 33
-94 4 -29 2 -35 -18 -41 -16 -5 -26 -2 -35 9 -12 17 -34 122 -34 164 0 41 27
22 54 -38z m-362 -35 c4 -5 8 -153 8 -327 l0 -318 -50 0 -50 0 0 367 0 367 42
-39 c23 -22 46 -44 50 -50z m283 14 c4 -27 5 -53 1 -56 -7 -7 -79 22 -83 34
-4 12 51 73 65 73 6 0 13 -23 17 -51z m-585 -4 c0 -25 -5 -45 -10 -45 -7 0
-10 19 -9 45 2 25 6 45 11 45 4 0 8 -20 8 -45z m-860 -275 l0 -310 -29 0 c-16
0 -31 6 -33 13 -2 6 -2 146 0 310 l4 297 29 0 29 0 0 -310z m-126 188 c-16
-355 -13 -338 -40 -338 -24 0 -24 0 -24 114 0 92 -3 118 -16 131 -9 9 -21 14
-28 12 -19 -6 -36 -50 -36 -93 0 -23 -3 -69 -6 -103 -6 -56 -9 -61 -30 -61
-24 0 -24 2 -24 94 0 139 -22 184 -66 135 -15 -17 -20 -41 -24 -127 -5 -99 -7
-107 -25 -107 -19 0 -20 8 -23 216 l-2 216 132 10 c73 5 152 10 175 11 l43 2
-6 -112z m2144 55 c29 -81 35 -103 26 -103 -5 0 -50 28 -101 62 -59 38 -90 65
-84 71 11 11 65 25 107 26 30 1 33 -3 52 -56z m-6615 -62 c-9 -50 -28 -67 -66
-57 -39 9 -34 36 21 100 46 56 47 57 50 29 1 -15 -1 -48 -5 -72z m272 -209
c-2 -142 -4 -260 -4 -264 -1 -5 -21 -8 -46 -8 l-45 0 0 230 0 231 40 50 c22
28 40 56 41 62 0 7 5 -1 9 -16 5 -16 7 -144 5 -285z m6004 268 c89 -70 82 -57
88 -157 3 -51 10 -93 14 -93 5 0 9 11 9 25 0 28 19 75 31 75 4 0 10 -8 12 -17
3 -10 5 -3 6 15 0 17 5 32 9 32 14 0 132 -82 132 -91 0 -5 -6 -9 -14 -9 -8 0
-21 -9 -28 -19 -16 -23 -104 -50 -136 -42 -67 17 -165 166 -178 270 -8 59 -7
60 55 11z m-2230 -26 c0 -32 -3 -62 -9 -69 -5 -6 -11 -102 -12 -216 l-3 -204
-27 -3 -28 -3 0 275 0 276 39 0 38 0 2 -56z m-2879 -18 c0 -36 -4 -46 -21 -51
-25 -8 -26 -7 -29 25 -5 58 -1 70 25 70 23 0 25 -4 25 -44z m5603 0 c29 -24
63 -49 75 -55 12 -6 22 -15 22 -19 0 -11 -81 -42 -92 -36 -12 8 -68 124 -68
142 0 18 4 16 63 -32z m-5713 -5 l0 -40 -52 -5 c-29 -3 -81 -7 -115 -10 l-63
-4 0 44 0 43 78 4 c42 1 94 4 115 5 37 2 37 2 37 -37z m4848 -310 l2 -261 -49
0 c-35 0 -51 4 -55 16 -3 9 -6 146 -6 306 l0 291 53 -45 52 -46 3 -261z
m-5145 318 c3 -12 3 -35 0 -50 -4 -24 -11 -29 -34 -29 -26 0 -29 3 -29 34 0
49 9 66 35 66 15 0 25 -7 28 -21z m-1848 -34 c132 -9 243 -19 247 -23 4 -4 23
-38 44 -77 96 -184 124 -238 124 -242 0 -3 -24 -2 -52 1 -51 6 -454 29 -491
28 -21 -1 -43 45 -93 196 -33 100 -42 148 -26 138 4 -2 115 -12 247 -21z
m6545 -276 c0 -171 -3 -258 -10 -254 -18 11 -12 515 6 515 2 0 4 -117 4 -261z
m730 251 c0 -5 -5 -10 -11 -10 -5 0 -7 5 -4 10 3 6 8 10 11 10 2 0 4 -4 4 -10z
m-4200 -45 c0 -33 -4 -45 -15 -45 -11 0 -15 12 -15 45 0 33 4 45 15 45 11 0
15 -12 15 -45z m-2133 -41 c-9 -95 -42 -125 -95 -88 -19 13 -20 18 -11 36 13
23 98 118 107 118 3 0 2 -30 -1 -66z m296 -286 l6 -338 -54 0 -55 0 0 283 0
282 47 57 c25 32 47 57 48 55 1 -1 5 -154 8 -339z m5897 261 c3 -4 5 -97 5
-206 l0 -198 -57 -3 -58 -3 0 246 0 247 53 -38 c28 -21 54 -41 57 -45z m-6093
54 c2 -6 -9 -26 -26 -45 l-30 -33 -1 32 c0 17 3 39 6 48 7 18 45 17 51 -2z
m6251 5 c13 -13 16 -28 5 -28 -5 0 -19 9 -33 20 -23 18 -24 20 -4 20 11 0 25
-5 32 -12z m-5054 -14 c14 -5 16 -38 16 -260 l0 -254 -30 0 -30 0 0 253 c0
140 3 257 7 260 8 9 17 9 37 1z m-94 -189 c0 -151 -3 -185 -14 -185 -10 0 -15
24 -21 96 -7 90 -8 95 -28 92 -20 -3 -22 -10 -25 -90 -3 -80 -5 -88 -22 -88
-18 0 -20 7 -20 84 0 76 -2 85 -20 91 -34 11 -40 -3 -40 -96 0 -69 -3 -89 -14
-89 -23 0 -26 24 -26 195 l0 164 68 4 c37 2 88 4 115 5 l47 2 0 -185z m3985
166 c22 -10 51 -31 65 -46 l25 -28 -35 26 c-50 37 -110 48 -171 33 -95 -25
-129 -85 -137 -241 -3 -59 -9 -105 -15 -105 -15 0 -2 198 17 251 38 105 153
156 251 110z m-4285 -201 c4 -181 1 -273 -11 -284 -2 -2 -13 -6 -24 -8 -19 -3
-20 3 -23 227 -1 127 0 240 3 253 4 17 12 22 28 20 22 -3 22 -6 27 -208z
m6372 111 c178 -87 199 -100 180 -110 -11 -6 -26 -11 -32 -11 -27 0 -464 180
-456 187 2 3 26 11 53 18 26 7 49 14 51 14 1 1 93 -43 204 -98z m-942 -36 c3
-7 4 -79 2 -159 l-3 -146 -55 0 -54 0 0 194 0 195 52 -35 c29 -19 55 -41 58
-49z m-4200 28 c4 -180 2 -395 -3 -399 -27 -27 -35 90 -20 319 3 59 10 107 15
107 4 0 8 -12 8 -27z m4665 5 c4 -11 20 -43 36 -70 16 -26 25 -48 20 -48 -5 0
-46 15 -93 34 -58 23 -93 32 -114 28 -26 -5 -28 -3 -16 11 19 22 111 67 138
67 14 0 25 -8 29 -22z m-6959 -114 c-6 -23 -102 -134 -116 -134 -4 0 -4 17 1
38 5 20 9 52 9 70 0 26 11 45 53 89 l52 55 3 -48 c2 -26 1 -58 -2 -70z m314
-154 l0 -260 -54 0 c-67 0 -64 -8 -65 215 l0 170 57 67 c31 37 58 68 60 68 1
0 2 -117 2 -260z m6833 215 c37 -16 67 -33 67 -37 0 -7 -82 -58 -94 -58 -8 0
-56 100 -56 118 0 8 4 12 8 10 5 -1 39 -16 75 -33z m-7047 14 c3 -6 -8 -25
-25 -42 l-31 -32 0 36 c0 20 3 39 7 42 10 11 41 8 49 -4z m6505 -46 l69 -37 0
-108 0 -108 -69 0 c-54 0 -70 4 -75 16 -8 21 -8 274 0 274 4 0 38 -17 75 -37z
m-3412 -11 c-9 -25 -8 -26 6 -8 11 14 15 16 15 5 -1 -38 -40 -55 -71 -30 -26
21 -20 47 13 60 36 13 48 4 37 -27z m-1266 17 c41 -11 102 -59 118 -93 7 -14
0 -10 -20 11 -93 99 -249 95 -318 -8 -25 -38 -28 -53 -31 -141 -3 -69 -7 -98
-15 -95 -8 3 -11 31 -9 88 8 195 110 284 275 238z m5388 -90 c33 -22 58 -43
55 -46 -7 -8 -196 30 -196 40 0 8 60 47 73 47 4 0 35 -18 68 -41z m-7471 -29
c0 -46 -4 -62 -16 -67 -16 -6 -94 25 -94 38 0 7 99 88 108 89 1 0 2 -27 2 -60z
m4088 34 c7 -2 12 -14 10 -26 -3 -20 -11 -24 -58 -30 -60 -7 -70 -1 -70 43 0
25 1 26 53 22 28 -3 58 -6 65 -9z m2856 -14 l66 -30 0 -66 0 -65 -67 3 -68 3
-3 93 c-1 50 -1 92 1 92 2 0 34 -14 71 -30z m1029 13 c79 -5 97 -9 92 -20 -3
-8 -5 -26 -5 -40 0 -31 -7 -30 -162 32 -95 38 -106 45 -68 40 25 -3 89 -8 143
-12z m-313 -19 c22 -9 40 -20 40 -24 0 -22 -23 -18 -61 10 -47 33 -40 38 21
14z m-7342 -224 l-3 -115 -57 -3 -58 -3 0 123 0 123 53 50 52 50 8 -55 c4 -30
6 -107 5 -170z m7477 160 c6 -4 42 -17 80 -30 106 -34 105 -43 -4 -37 -52 3
-98 10 -102 14 -5 5 -12 23 -15 41 -6 29 -4 32 12 26 11 -4 24 -10 29 -14z
m-684 -1 c83 -26 89 -30 89 -60 l0 -29 -70 0 -70 0 0 34 c0 19 -3 41 -6 50 -7
19 9 20 57 5z m-7204 -32 l30 -22 -43 -38 -44 -38 0 44 c0 48 7 77 19 77 4 0
21 -10 38 -23z m-125 -88 c-7 -30 -12 -34 -38 -30 -16 1 -42 8 -57 15 l-29 11
64 41 c60 39 63 39 66 18 2 -12 -1 -37 -6 -55z m7535 57 c65 -18 62 -26 -10
-26 -66 0 -67 1 -67 26 0 21 3 25 18 19 9 -5 36 -13 59 -19z m-8007 -67 c0
-13 -60 -15 -88 -3 -16 6 -37 22 -46 35 -32 47 -17 50 59 12 41 -21 75 -40 75
-44z m850 -43 l0 -104 -50 -7 c-27 -4 -54 -4 -60 0 -5 3 -10 34 -10 68 l1 62
49 34 c28 18 50 37 50 42 0 5 5 9 10 9 6 0 10 -41 10 -104z m4685 94 c61 -5
127 -13 147 -16 l37 -6 -2 -91 -2 -92 -375 -5 c-324 -4 -375 -7 -375 -20 0
-13 49 -15 373 -18 l372 -2 0 -23 c-1 -88 -64 -244 -122 -304 -57 -58 -101
-70 -308 -83 -96 -6 -191 -15 -210 -20 -19 -5 -69 -30 -110 -56 -119 -73 -123
-74 -312 -74 -158 0 -170 1 -163 18 3 9 40 75 82 146 42 71 77 138 78 150 1
12 3 130 4 264 l1 242 388 0 c213 0 437 -5 497 -10z m-4015 -31 c0 -10 -3 -19
-7 -20 -5 0 -29 -3 -54 -5 -42 -5 -47 -3 -52 17 -3 12 -4 25 -2 28 1 3 28 4
59 3 47 -3 56 -7 56 -23z m4550 -109 c0 -64 -3 -80 -15 -80 -12 0 -15 16 -15
80 0 64 3 80 15 80 12 0 15 -16 15 -80z m-5663 24 c-1 -1 -31 -5 -66 -8 -35
-3 -68 -9 -74 -13 -13 -8 0 16 25 43 l19 22 49 -21 c27 -11 49 -22 47 -23z
m-271 12 c13 -52 4 -55 -68 -27 -37 14 -68 29 -68 33 0 7 39 14 97 16 27 2 34
-2 39 -22z m61 18 c-3 -3 -12 -4 -19 -1 -8 3 -5 6 6 6 11 1 17 -2 13 -5z
m8561 -16 c3 -17 -19 -18 -350 -18 -194 0 -558 -2 -808 -5 -250 -3 -677 -7
-948 -10 -491 -5 -493 -5 -490 15 3 20 9 20 1213 26 666 4 1212 8 1215 11 2 2
40 2 84 1 68 -3 81 -6 84 -20z m-8078 -58 l0 -50 -66 0 c-55 0 -65 3 -62 16 2
13 69 56 126 83 1 0 2 -21 2 -49z m3885 39 c4 -6 4 -13 0 -17 -3 -4 -171 -10
-372 -13 -322 -6 -368 -9 -378 -23 -18 -24 -25 -20 -25 14 l0 30 83 1 c207 4
673 15 679 17 4 1 10 -3 13 -9z m-2396 -25 c65 -4 99 -9 90 -15 -10 -6 -10 -9
-1 -9 13 0 17 -67 6 -107 l-6 -23 -232 1 c-127 1 -244 5 -261 9 -25 6 -20 8
30 11 l60 3 -53 3 c-35 3 -59 -1 -73 -11 -12 -8 -28 -12 -37 -9 -10 4 -13 2
-8 -5 4 -7 2 -12 -3 -12 -6 0 -11 -4 -11 -10 0 -6 67 -10 180 -10 119 0 180
-4 180 -10 0 -7 38 -10 110 -7 61 2 110 0 110 -5 0 -4 -8 -8 -17 -9 -11 0 -13
-3 -5 -6 37 -15 -12 -144 -87 -226 -39 -43 -84 -57 -211 -68 -149 -14 -176
-22 -287 -92 l-92 -57 -160 2 -159 3 76 125 77 125 3 207 3 207 142 3 c176 4
498 -1 636 -8z m1543 1 c3 -14 -114 -27 -127 -14 -17 17 16 29 73 27 29 -2 53
-7 54 -13z m-208 -4 c4 -5 3 -16 0 -25 -4 -11 -16 -14 -52 -9 -26 3 -121 0
-212 -6 -91 -6 -270 -14 -397 -17 -207 -6 -233 -5 -233 8 0 19 35 21 505 39
165 6 302 13 304 15 9 8 80 4 85 -5z m-974 -337 c0 -248 -3 -315 -12 -312 -16
6 -22 240 -10 388 4 56 4 104 -1 107 -14 8 -4 133 10 133 10 0 13 -67 13 -316z
m6240 242 c0 -8 -8 -17 -17 -20 -34 -9 -2590 -19 -2596 -9 -19 31 9 33 554 36
1796 8 2059 7 2059 -7z m-2702 -273 c-2 -210 -6 -277 -15 -281 -10 -3 -13 57
-13 277 0 244 2 281 15 281 13 0 15 -35 13 -277z m-1978 252 c145 -18 236 -36
373 -72 80 -21 97 -29 97 -45 0 -23 1 -23 -200 27 -74 19 -197 44 -272 56
-100 16 -138 25 -138 35 0 17 -10 17 140 -1z m-2780 -19 c0 -10 -18 -16 -62
-20 -88 -7 -1399 -28 -1405 -22 -3 3 -3 12 0 20 4 11 34 14 144 16 76 2 305 6
508 9 686 13 815 13 815 -3z m1815 -36 c-33 -16 -65 -33 -71 -39 -7 -5 -83
-46 -170 -89 -88 -44 -183 -96 -213 -116 -29 -20 -55 -36 -57 -36 -2 0 -4 13
-4 28 0 24 10 34 77 73 118 67 247 128 363 170 124 45 159 49 75 9z m535 11
c-8 -5 -58 -18 -110 -30 -248 -57 -459 -129 -654 -223 -44 -21 -81 -36 -83
-34 -13 13 152 99 291 153 160 62 258 90 471 136 38 9 101 7 85 -2z m435 -81
c164 -28 455 -111 455 -129 0 -16 -112 -181 -124 -181 -6 0 -69 7 -141 15
-191 22 -342 19 -535 -8 -22 -3 -147 243 -129 254 11 6 223 61 284 72 24 5 34
3 190 -23z m3895 -115 c0 -24 5 -35 15 -35 10 0 15 11 15 35 l0 35 370 0 370
0 0 -45 c0 -42 -1 -44 -32 -49 -18 -3 -190 -12 -383 -21 -296 -13 -642 -40
-653 -50 -2 -1 40 -6 93 -10 52 -4 97 -10 100 -15 2 -4 -55 -10 -128 -14 -72
-4 -203 -11 -290 -17 -86 -6 -161 -8 -166 -5 -7 5 -113 161 -145 214 -6 9 80
12 413 12 l421 0 0 -35z m-6690 -32 c0 -10 -49 -93 -77 -131 -16 -21 -31 -31
-41 -28 -9 3 -110 10 -224 17 -115 7 -208 15 -208 19 0 4 53 11 118 16 l117 8
-95 12 c-52 7 -166 16 -252 20 l-158 7 0 28 0 29 178 3 c403 6 642 7 642 0z
m2389 -248 c1 -14 -97 171 -104 198 -3 12 19 -25 49 -83 30 -58 55 -109 55
-115z m709 20 c9 -9 -34 -66 -53 -70 -30 -7 -226 -35 -243 -35 -9 0 -13 -2
-11 -4 2 -3 79 -12 170 -21 143 -14 347 -16 1470 -18 1306 -2 1577 0 1656 12
l43 6 -31 45 c-16 25 -37 58 -45 73 -14 27 -14 28 2 19 9 -5 57 -7 106 -4 67
4 92 2 98 -8 8 -13 67 -20 325 -40 124 -9 738 -40 801 -40 41 0 27 -18 -18
-24 -50 -7 -280 -22 -568 -36 -170 -9 -624 -43 -735 -55 -16 -2 -376 -6 -800
-9 -763 -6 -1106 -15 -1549 -41 -127 -8 -234 -11 -239 -8 -4 3 -74 1 -155 -3
-89 -5 -133 -10 -112 -14 21 -3 -27 -9 -115 -13 -82 -4 -196 -12 -252 -18 -80
-7 -131 -6 -235 6 -270 32 -457 47 -603 49 -247 4 -262 5 -245 16 10 6 -2 8
-36 4 -28 -4 -156 -1 -285 5 -129 6 -520 13 -869 16 -349 4 -669 10 -710 15
-140 18 -434 40 -735 55 -445 23 -541 32 -524 49 2 3 205 14 449 25 245 12
472 23 505 26 107 10 195 27 189 36 -3 5 22 9 55 9 34 0 61 -2 61 -5 0 -3 -14
-33 -31 -66 -17 -34 -29 -63 -27 -64 31 -31 2486 -30 2752 1 72 8 132 16 134
18 3 3 -79 18 -158 29 -15 2 -60 62 -60 81 0 8 90 10 312 8 172 -2 314 -5 316
-7z m-341 -352 c-4 -3 -42 -7 -85 -8 -50 -2 -67 0 -47 5 38 10 140 12 132 3z
m50 -9 c-3 -3 -12 -4 -19 -1 -8 3 -5 6 6 6 11 1 17 -2 13 -5z m188 -44 c169
-23 398 -46 555 -56 63 -4 121 -10 128 -13 6 -4 -57 -13 -140 -20 -180 -15
-491 -53 -668 -82 -69 -11 -129 -20 -135 -20 -5 -1 -84 10 -175 24 -91 14
-244 35 -340 47 -96 11 -211 25 -254 30 -44 6 -97 10 -118 10 -24 0 -37 4 -33
10 3 6 27 10 53 10 55 0 389 34 547 55 280 39 331 39 580 5z"/>
<path d="M4411 6922 c-16 -30 -24 -89 -12 -96 13 -8 50 31 57 61 12 46 -24 74
-45 35z"/>
<path d="M4250 6889 c0 -55 38 -94 54 -53 17 43 -1 84 -36 84 -13 0 -18 -8
-18 -31z"/>
<path d="M3580 6760 c-142 -22 -255 -47 -281 -60 -19 -11 -26 -35 -11 -44 8
-5 383 49 410 59 13 5 17 66 5 64 -5 -1 -60 -9 -123 -19z"/>
<path d="M620 5228 c0 -9 34 -96 59 -152 11 -23 26 -58 34 -78 10 -24 23 -38
34 -38 10 0 117 -7 238 -15 120 -8 221 -12 223 -10 2 2 -28 60 -67 129 -39 69
-71 129 -71 134 0 5 -21 9 -47 11 -27 1 -128 8 -225 14 -98 7 -178 9 -178 5z"/>
<path d="M6328 4683 c7 -3 16 -2 19 1 4 3 -2 6 -13 5 -11 0 -14 -3 -6 -6z"/>
<path d="M6040 4670 l-35 -7 35 -3 c32 -2 33 -3 10 -9 -14 -4 -35 -3 -46 2
-15 6 -28 5 -40 -2 -17 -11 -16 -11 5 -5 16 4 21 3 17 -5 -4 -6 -18 -11 -31
-11 -12 0 -25 -7 -29 -15 -4 -12 3 -15 34 -15 33 0 40 3 40 20 0 13 5 18 15
14 8 -4 37 -3 63 1 41 7 44 9 22 16 l-25 7 28 1 c15 1 27 6 27 11 0 11 -37 11
-90 0z"/>
<path d="M6188 4673 c18 -2 45 -2 60 0 15 2 0 4 -33 4 -33 0 -45 -2 -27 -4z"/>
<path d="M6398 4673 c12 -2 30 -2 40 0 9 3 -1 5 -23 4 -22 0 -30 -2 -17 -4z"/>
<path d="M6203 4653 c9 -2 23 -2 30 0 6 3 -1 5 -18 5 -16 0 -22 -2 -12 -5z"/>
<path d="M6283 4653 c9 -2 23 -2 30 0 6 3 -1 5 -18 5 -16 0 -22 -2 -12 -5z"/>
<path d="M6393 4653 c9 -2 23 -2 30 0 6 3 -1 5 -18 5 -16 0 -22 -2 -12 -5z"/>
<path d="M5896 4612 c-2 -4 -1 -14 5 -22 5 -8 9 -13 10 -10 0 3 2 13 4 23 3
17 -10 24 -19 9z"/>
<path d="M5875 4570 c-3 -5 -1 -10 4 -10 6 0 11 5 11 10 0 6 -2 10 -4 10 -3 0
-8 -4 -11 -10z"/>
<path d="M6178 4543 c12 -2 30 -2 40 0 9 3 -1 5 -23 4 -22 0 -30 -2 -17 -4z"/>
<path d="M6253 4543 c9 -2 23 -2 30 0 6 3 -1 5 -18 5 -16 0 -22 -2 -12 -5z"/>
<path d="M6408 4533 c7 -3 16 -2 19 1 4 3 -2 6 -13 5 -11 0 -14 -3 -6 -6z"/>
<path d="M6000 4520 c0 -5 7 -7 15 -4 8 4 15 8 15 10 0 2 -7 4 -15 4 -8 0 -15
-4 -15 -10z"/>
<path d="M5818 4513 c7 -3 16 -2 19 1 4 3 -2 6 -13 5 -11 0 -14 -3 -6 -6z"/>
<path d="M5908 4513 c7 -3 16 -2 19 1 4 3 -2 6 -13 5 -11 0 -14 -3 -6 -6z"/>
<path d="M5742 4425 c0 -16 2 -22 5 -12 2 9 2 23 0 30 -3 6 -5 -1 -5 -18z"/>
<path d="M5808 4443 c29 -2 74 -2 100 0 26 2 2 3 -53 3 -55 0 -76 -1 -47 -3z"/>
<path d="M6018 4443 c12 -2 32 -2 45 0 12 2 2 4 -23 4 -25 0 -35 -2 -22 -4z"/>
<path d="M5788 4423 c12 -2 30 -2 40 0 9 3 -1 5 -23 4 -22 0 -30 -2 -17 -4z"/>
<path d="M2768 4533 c6 -2 18 -2 25 0 6 3 1 5 -13 5 -14 0 -19 -2 -12 -5z"/>
<path d="M2584 4512 c-17 -9 -29 -23 -27 -29 3 -7 -1 -13 -9 -13 -10 0 -9 -3
2 -10 8 -5 33 -9 55 -8 l40 1 -45 7 -45 7 43 1 c28 1 41 6 40 15 -2 8 12 12
44 12 57 0 53 15 -5 16 -40 1 -40 2 -12 9 29 7 28 8 -10 8 -22 1 -54 -7 -71
-16z m26 -22 c-24 -15 -37 -11 -16 5 11 8 22 12 25 9 3 -3 -1 -9 -9 -14z"/>
<path d="M2678 4483 c6 -2 18 -2 25 0 6 3 1 5 -13 5 -14 0 -19 -2 -12 -5z"/>
<path d="M2515 4470 c-3 -5 -1 -10 4 -10 6 0 11 5 11 10 0 6 -2 10 -4 10 -3 0
-8 -4 -11 -10z"/>
<path d="M2688 4453 c6 -2 18 -2 25 0 6 3 1 5 -13 5 -14 0 -19 -2 -12 -5z"/>
<path d="M2658 4433 c12 -2 32 -2 45 0 12 2 2 4 -23 4 -25 0 -35 -2 -22 -4z"/>
<path d="M2928 4433 c6 -2 18 -2 25 0 6 3 1 5 -13 5 -14 0 -19 -2 -12 -5z"/>
<path d="M2473 4355 c-3 -9 -3 -19 1 -22 3 -4 6 2 6 12 0 17 8 18 108 12 60
-3 115 -1 123 4 9 5 -32 9 -109 9 -101 0 -124 -3 -129 -15z"/>
<path d="M2540 4340 c0 -5 5 -10 11 -10 5 0 7 5 4 10 -3 6 -8 10 -11 10 -2 0
-4 -4 -4 -10z"/>
<path d="M2733 4328 c-18 -5 -33 -10 -33 -11 0 -1 44 -2 98 -2 53 0 104 -4
112 -10 8 -5 11 -5 7 0 -4 5 3 15 15 22 20 11 10 13 -72 11 -52 0 -110 -5
-127 -10z"/>
<path d="M2602 4325 c10 -10 49 -14 43 -4 -4 5 -16 9 -27 9 -12 0 -19 -2 -16
-5z"/>
<path d="M2885 4220 c-3 -5 -1 -10 4 -10 6 0 11 5 11 10 0 6 -2 10 -4 10 -3 0
-8 -4 -11 -10z"/>
<path d="M3938 3703 c12 -2 32 -2 45 0 12 2 2 4 -23 4 -25 0 -35 -2 -22 -4z"/>
<path d="M6465 8980 c27 -12 43 -12 25 0 -8 5 -22 9 -30 9 -10 0 -8 -3 5 -9z"/>
<path d="M6530 8951 c14 -11 39 -21 55 -23 18 -2 29 -8 28 -15 -2 -7 3 -13 10
-14 42 -2 79 -8 84 -13 4 -3 0 -6 -8 -6 -8 -1 1 -7 20 -15 18 -8 37 -12 42 -9
5 2 18 0 30 -7 18 -9 19 -13 8 -21 -10 -6 -7 -7 10 -3 15 5 21 3 17 -3 -3 -6
1 -8 11 -6 10 3 27 -2 38 -11 l20 -15 -20 6 c-16 5 -17 4 -5 -5 8 -6 23 -8 34
-5 12 4 16 2 12 -5 -5 -7 2 -11 18 -11 14 0 28 -5 32 -12 4 -7 3 -8 -4 -4 -7
4 -12 5 -12 2 0 -11 61 -37 72 -30 6 4 8 3 4 -4 -9 -15 52 -44 72 -33 12 7 -1
18 -59 47 -207 105 -270 133 -286 127 -10 -4 -14 -2 -10 4 8 13 -89 57 -105
47 -6 -4 -8 -3 -5 3 3 5 -17 18 -46 28 -79 28 -84 28 -57 6z"/>
<path d="M3148 8730 c-14 -10 -29 -16 -33 -12 -5 4 -5 1 -1 -5 9 -16 11 -16
28 0 7 7 24 18 38 24 16 8 19 12 9 12 -9 1 -28 -8 -41 -19z"/>
<path d="M3085 8690 c-4 -6 -11 -7 -17 -4 -7 4 -8 2 -4 -4 4 -7 4 -12 -1 -13
-37 -3 -48 -10 -186 -107 l-68 -49 -46 24 c-56 28 -75 28 -131 3 -34 -15 -47
-29 -63 -66 -18 -40 -19 -52 -9 -91 6 -25 8 -48 5 -52 -171 -170 -303 -320
-419 -475 -112 -150 -173 -253 -159 -267 7 -7 28 18 63 73 126 198 346 469
485 596 l58 52 42 -20 c47 -23 79 -20 130 11 45 27 67 71 64 128 -2 27 3 56 9
64 7 7 8 18 4 22 -4 5 -1 5 6 1 6 -4 19 -1 27 7 8 8 44 37 80 63 36 26 65 51
65 55 0 4 10 10 23 13 26 7 77 45 60 46 -6 0 -15 -5 -18 -10z m-363 -227 c24
-21 23 -58 -2 -83 -52 -52 -108 16 -64 78 18 26 41 28 66 5z"/>
<path d="M7101 8681 c-17 -11 3 -25 22 -15 6 4 9 4 5 -1 -4 -4 53 -47 126 -95
l133 -89 -4 -48 c-5 -59 19 -109 66 -137 40 -23 102 -24 136 -2 24 16 27 16
53 -3 33 -23 174 -169 259 -266 70 -81 197 -249 274 -364 30 -44 57 -80 62
-81 18 0 4 42 -30 91 -20 30 -46 68 -58 84 -108 156 -214 283 -391 468 -104
108 -113 120 -104 143 44 114 -73 229 -180 180 -19 -8 -42 -21 -51 -28 -14 -9
-25 -5 -65 24 -56 41 -225 148 -233 148 -4 0 -12 -4 -20 -9z m413 -223 c-2
-13 -6 -34 -10 -48 -6 -24 -6 -24 9 -5 9 11 17 27 17 35 1 13 2 13 7 0 3 -8
12 -22 20 -31 13 -15 12 -19 -9 -33 -29 -20 -41 -20 -60 2 -29 32 -31 59 -7
81 29 27 37 26 33 -1z"/>
<path d="M1823 7555 c-45 -19 -73 -69 -73 -129 0 -43 4 -53 38 -86 49 -49 101
-61 151 -34 109 59 106 203 -6 250 -40 17 -69 17 -110 -1z m83 -74 c-3 -5 1
-14 9 -21 43 -36 -7 -96 -60 -72 -29 14 -35 61 -9 86 16 17 69 23 60 7z"/>
<path d="M8268 7550 c-68 -37 -87 -118 -46 -191 73 -131 272 -47 244 103 -15
83 -121 130 -198 88z m41 -118 c0 9 5 20 11 23 6 3 7 -1 4 -9 -7 -19 12 -22
19 -3 4 9 8 8 16 -3 9 -12 11 -10 11 10 l1 25 10 -25 c9 -21 6 -28 -17 -48
-14 -13 -34 -22 -43 -20 -21 4 -45 55 -35 76 6 14 9 11 14 -13 4 -16 8 -22 9
-13z"/>
<path d="M1787 7233 c-175 -393 -287 -795 -347 -1250 -13 -91 -9 -136 10 -117
5 5 17 63 25 129 53 409 177 862 323 1185 41 91 46 110 29 110 -8 0 -26 -26
-40 -57z"/>
<path d="M8380 7269 c0 -5 24 -65 53 -132 145 -330 246 -696 302 -1092 22
-161 25 -175 35 -175 38 0 -47 500 -136 810 -20 68 -60 187 -89 265 -81 216
-165 382 -165 324z"/>
<path d="M1416 5684 c-8 -20 -8 -558 0 -578 3 -9 14 -16 23 -16 15 0 16 27 13
292 -2 161 -5 299 -7 306 -6 17 -22 15 -29 -4z"/>
<path d="M8772 5537 c1 -91 6 -169 11 -173 16 -16 22 12 25 114 4 123 -7 213
-26 220 -11 3 -13 -26 -10 -161z"/>
<path d="M9186 3483 c-3 -3 -43 -5 -88 -4 -46 1 -94 -3 -108 -8 -19 -8 -1 -10
78 -8 56 1 103 -1 105 -5 1 -4 13 -1 26 6 18 10 20 14 8 19 -8 3 -18 3 -21 0z"/>
<path d="M930 3475 c0 -2 14 -12 31 -21 31 -16 54 -15 164 3 l40 7 -55 7 c-65
8 -180 11 -180 4z"/>
<path d="M8938 3463 c7 -3 16 -2 19 1 4 3 -2 6 -13 5 -11 0 -14 -3 -6 -6z"/>
<path d="M3027 2829 c-139 -33 -228 -156 -214 -295 6 -62 27 -104 70 -145 42
-41 69 -54 169 -83 114 -33 117 -35 133 -67 21 -40 19 -57 -14 -90 -26 -25
-37 -29 -86 -29 -63 0 -104 17 -153 64 l-34 31 -54 -60 c-30 -33 -54 -65 -54
-72 0 -22 92 -92 149 -114 38 -14 80 -21 131 -22 131 -1 221 45 278 141 24 41
27 57 27 133 0 76 -3 90 -27 127 -36 53 -96 88 -215 122 -141 41 -179 95 -114
161 49 49 143 37 211 -27 l25 -23 53 65 c32 38 52 71 48 79 -9 26 -124 93
-177 104 -58 13 -99 13 -152 0z"/>
<path d="M3562 2825 c-35 -8 -78 -22 -95 -33 -31 -18 -32 -20 -35 -102 -2 -46
-1 -89 2 -96 4 -9 25 -2 76 24 58 29 83 37 128 37 118 0 215 -70 246 -176 20
-66 20 -102 0 -168 -45 -152 -217 -219 -372 -144 l-60 28 -6 -44 c-3 -24 -6
-65 -6 -91 0 -47 1 -48 44 -69 150 -70 352 -30 462 92 26 29 63 86 83 127 35
72 36 79 36 185 -1 130 -21 195 -89 278 -110 135 -256 188 -414 152z"/>
<path d="M6230 2823 c-124 -34 -220 -113 -279 -231 -64 -127 -64 -267 1 -399
34 -70 120 -158 187 -193 183 -93 413 -38 535 129 45 61 83 151 92 219 6 50 5
53 -71 184 -43 73 -94 161 -114 195 -32 56 -42 65 -91 84 -76 29 -179 34 -260
12z m219 -194 c91 -39 142 -119 142 -224 0 -142 -74 -237 -208 -265 -113 -24
-221 27 -278 130 -65 121 -21 289 90 348 89 46 165 50 254 11z"/>
<path d="M9106 2832 c-171 -1 -264 -6 -273 -13 -20 -17 -19 -831 1 -848 9 -8
96 -11 297 -9 l284 3 0 90 0 90 -207 3 -208 2 0 79 c0 63 3 80 16 85 9 3 84 6
169 6 l153 0 6 31 c11 57 7 126 -9 139 -11 9 -57 12 -173 9 l-157 -4 -3 78 -3
77 205 0 c177 0 205 2 210 16 3 9 6 49 6 90 0 57 -3 74 -14 74 -8 0 -20 1 -28
3 -7 1 -130 1 -272 -1z"/>
<path d="M670 2811 c-11 -21 -13 -103 -4 -138 6 -21 12 -23 118 -25 l111 -3 5
-340 5 -340 82 -3 c81 -3 83 -2 89 22 3 14 4 76 3 138 -2 62 -3 206 -1 321 l2
207 109 0 c126 0 121 -5 121 106 l0 74 -315 0 c-300 0 -315 -1 -325 -19z"/>
<path d="M1397 2812 c-15 -17 -17 -59 -17 -416 0 -255 4 -404 10 -417 10 -18
24 -19 295 -19 l285 0 5 23 c3 12 5 54 3 92 l-3 70 -207 3 -208 2 0 80 c0 71
2 79 21 85 11 4 84 6 162 5 78 -1 148 -2 155 -1 8 1 12 25 12 85 0 83 0 84
-27 91 -16 4 -93 5 -173 3 l-145 -3 -3 78 -3 77 200 0 200 0 6 33 c4 17 5 57
3 87 l-3 55 -276 3 c-257 2 -277 1 -292 -16z"/>
<path d="M2078 2412 c-2 -230 -2 -426 0 -436 3 -14 15 -16 90 -14 l87 3 -1
233 c0 127 3 232 7 232 4 0 22 -19 40 -42 69 -88 333 -404 348 -416 9 -7 34
-12 56 -10 l40 3 3 433 2 433 -87 -3 -88 -3 -5 -229 -5 -229 -90 109 c-49 60
-121 147 -159 194 -126 156 -130 160 -186 160 l-50 0 -2 -418z"/>
<path d="M4147 2816 c-8 -20 -8 -769 -1 -818 l7 -38 83 0 84 0 0 194 c0 168 2
195 16 200 30 11 40 6 58 -31 24 -52 185 -324 204 -345 13 -15 33 -18 129 -18
62 0 113 2 113 4 0 2 -16 21 -36 42 -37 41 -156 204 -192 265 l-22 37 30 12
c37 15 85 68 106 118 40 92 10 233 -64 305 -73 71 -113 82 -323 85 -161 3
-187 1 -192 -12z m353 -179 c69 -24 88 -117 34 -164 -22 -20 -36 -23 -120 -23
l-94 0 0 100 0 100 73 -1 c39 0 88 -5 107 -12z"/>
<path d="M5265 2818 c-3 -7 -4 -202 -3 -433 l3 -420 85 0 85 0 5 195 c5 191 5
195 27 198 16 2 26 -5 39 -30 36 -72 188 -324 207 -345 19 -21 29 -23 134 -23
113 0 131 6 93 33 -27 19 -87 96 -164 212 -59 88 -65 101 -50 110 45 27 84 70
103 116 60 139 4 302 -126 365 -57 28 -63 29 -246 32 -149 3 -188 1 -192 -10z
m338 -179 c76 -21 99 -116 42 -166 -23 -20 -37 -23 -116 -23 l-89 0 0 100 0
100 63 0 c34 0 79 -5 100 -11z"/>
<path d="M6610 2822 c0 -5 25 -50 55 -100 30 -49 91 -161 137 -249 l83 -158 5
-175 5 -175 79 -3 c57 -2 82 1 87 10 5 7 9 87 9 177 l0 165 99 181 c55 100
118 211 140 248 23 37 41 71 41 77 0 7 -38 10 -111 8 l-112 -3 -69 -155 c-38
-85 -72 -158 -77 -163 -4 -4 -43 67 -87 158 l-79 165 -102 0 c-57 0 -103 -4
-103 -8z"/>
<path d="M7544 2775 c-13 -31 -24 -58 -24 -60 0 -3 -61 -167 -135 -366 -74
-199 -135 -368 -135 -375 0 -11 20 -14 89 -14 l90 0 21 58 c11 31 26 69 32 85
l10 27 162 0 162 0 30 -82 29 -83 94 -3 c93 -3 93 -3 88 20 -5 20 -283 767
-307 826 -9 20 -16 22 -95 22 l-86 0 -25 -55z m148 -307 c55 -144 54 -136 16
-143 -18 -3 -58 -4 -88 -2 -42 2 -54 7 -52 18 6 31 77 219 83 219 4 0 22 -42
41 -92z"/>
<path d="M8142 2398 l3 -433 295 0 295 0 3 93 3 92 -210 0 -211 0 -2 338 -3
337 -88 3 -87 3 2 -433z"/>
<path d="M2723 1603 l-23 -4 0 -232 c0 -128 3 -242 6 -254 6 -20 13 -23 60
-23 l54 0 1 143 0 142 29 -35 c17 -19 67 -82 113 -140 l82 -105 45 0 45 0 3
251 2 251 -27 6 c-45 9 -83 -3 -88 -27 -3 -11 -6 -76 -8 -142 l-2 -122 -104
140 c-92 122 -132 162 -159 157 -4 -1 -17 -4 -29 -6z"/>
<path d="M3532 1603 l-152 -4 2 -252 3 -252 187 -3 187 -2 6 34 c4 19 4 44 0
55 -6 20 -13 21 -136 21 l-129 0 0 45 0 45 105 0 105 0 0 55 0 55 -105 0 -105
0 0 45 0 45 124 0 c137 0 136 -1 136 70 0 31 -4 39 -22 44 -13 3 -30 5 -38 4
-8 -2 -84 -4 -168 -5z"/>
<path d="M3953 1602 c-20 -3 -23 -9 -23 -52 0 -56 6 -60 91 -60 l59 0 0 -200
0 -200 55 0 55 0 2 123 c2 67 1 157 -1 200 l-3 77 71 0 c59 0 72 3 81 19 14
27 13 78 -2 87 -12 8 -340 12 -385 6z"/>
<path d="M4483 1603 l-31 -4 19 -72 c35 -124 121 -401 131 -420 7 -13 19 -17
46 -15 34 3 38 7 55 53 10 27 29 89 41 138 13 49 26 85 28 81 3 -5 18 -49 32
-99 51 -173 52 -175 96 -175 l39 0 37 118 c19 64 51 164 69 222 18 58 36 120
39 138 l8 32 -61 0 c-34 0 -61 -2 -61 -5 0 -9 -71 -279 -74 -282 -3 -3 -48
159 -72 260 -6 26 -9 28 -52 25 l-45 -3 -23 -90 c-13 -49 -29 -114 -36 -142
-7 -29 -15 -53 -18 -53 -3 0 -21 64 -40 141 -30 123 -38 142 -58 150 -13 5
-26 8 -30 7 -4 0 -21 -3 -39 -5z"/>
<path d="M5348 1596 c-133 -36 -214 -183 -175 -317 35 -120 124 -189 243 -189
122 0 218 81 244 204 24 117 -33 236 -139 290 -41 21 -121 27 -173 12z m147
-137 c64 -57 67 -158 6 -220 -106 -105 -270 34 -202 173 40 83 130 105 196 47z"/>
<path d="M5873 1603 c-10 -3 -13 -65 -13 -259 l0 -254 55 0 55 0 0 90 0 90 38
-1 c35 0 39 -4 96 -90 l58 -89 70 0 c67 0 70 1 57 19 -84 116 -119 168 -119
177 0 7 11 19 25 28 40 26 58 72 53 136 -8 116 -62 151 -242 155 -67 2 -127 1
-133 -2z m245 -125 c7 -7 12 -27 12 -45 0 -42 -21 -53 -99 -53 l-61 0 0 55 0
55 68 0 c40 0 73 -5 80 -12z"/>
<path d="M6500 1345 l0 -255 54 0 c63 0 66 4 66 89 0 47 4 61 23 79 13 12 25
22 28 22 3 0 40 -43 83 -95 l78 -95 74 0 c41 0 74 4 74 8 0 5 -39 51 -88 103
-48 52 -100 111 -116 132 l-29 38 83 87 c46 48 94 97 107 109 13 12 23 25 23
28 0 3 -33 5 -73 5 l-74 0 -96 -99 -97 -100 0 100 0 99 -60 0 -60 0 0 -255z"/>
<path d="M697 1404 c-4 -4 -4 -11 -1 -15 6 -11 1401 -11 1429 0 11 5 -38 10
-120 14 -177 9 -1300 9 -1308 1z"/>
<path d="M7730 1400 l-165 -5 145 -7 c80 -5 497 -8 928 -8 688 0 782 2 782 15
0 13 -90 15 -762 13 -420 -1 -837 -5 -928 -8z"/>
<path d="M2168 1393 c7 -3 16 -2 19 1 4 3 -2 6 -13 5 -11 0 -14 -3 -6 -6z"/>
</g>
</svg>
